<svg width="32" height="32" viewBox="0 0 32 32" xmlns="http://www.w3.org/2000/svg"><title>icon_jewelry</title><defs><linearGradient x1="50%" y1="0%" x2="50%" y2="100%" id="a"><stop stop-color="#91E1F9" offset="0%"/><stop stop-color="#55BDF0" offset="100%"/></linearGradient></defs><g transform="translate(-179 -12133)" fill="url(#a)" fill-rule="evenodd"><path d="M195 12162.765c7.602 0 13.765-6.163 13.765-13.765s-6.163-13.765-13.765-13.765-13.765 6.163-13.765 13.765 6.163 13.765 13.765 13.765zm0 2.235c-8.837 0-16-7.163-16-16s7.163-16 16-16 16 7.163 16 16-7.163 16-16 16z" fill-rule="nonzero"/><path d="M191.046 12146.306l2.017-2.667h-3.362l1.345 2.667zm7.336 0l1.346-2.667h-3.363l2.017 2.667zm-8.812.732l-1.204-2.389-1.204 2.389h2.408zm7.302 0l-2.157-2.855-2.16 2.855h4.317zm5.395 0l-1.204-2.389-1.204 2.389h2.408zm-7.552 7.59l2.559-5.954h-5.12l2.56 5.953zm1.747.11l5.326-6.064h-2.719l-2.607 6.064zm-3.495 0l-2.607-6.064h-2.72l5.327 6.064zm1.748 4.052a.83.83 0 0 1-.623-.28l-8.889-10.116a.812.812 0 0 1-.118-.9l2.542-5.042c.174-.302.42-.452.74-.452h12.696c.319 0 .565.15.734.445l2.544 5.045a.812.812 0 0 1-.113.9l-8.891 10.12a.828.828 0 0 1-.622.28z"/></g></svg>