<svg width="32" height="32" viewBox="0 0 32 32" xmlns="http://www.w3.org/2000/svg"><title>icon_flowers</title><defs><linearGradient x1="50%" y1="0%" x2="50%" y2="100%" id="a"><stop stop-color="#FFB0BE" offset="0%"/><stop stop-color="#FF788A" offset="100%"/></linearGradient></defs><g fill="none" fill-rule="evenodd"><path d="M16 29.765c7.602 0 13.765-6.163 13.765-13.765S23.602 2.235 16 2.235 2.235 8.398 2.235 16 8.398 29.765 16 29.765zM16 32C7.163 32 0 24.837 0 16S7.163 0 16 0s16 7.163 16 16-7.163 16-16 16z" fill="url(#a)" fill-rule="nonzero"/><g transform="translate(8 6)" fill="#FFEEF1" fill-rule="nonzero" stroke="url(#a)" stroke-width="1.905"><path d="M10.708 3.62A61.384 61.384 0 0 0 8.198.183a.476.476 0 0 0-.75 0 61.438 61.438 0 0 0-2.51 3.437l1.443 3.413h3.365l.962-3.413z"/><path d="M6.182 8.522c1.683-2.444 4.198-5.081 5.224-6.124a.475.475 0 0 1 .765.118c.836 1.636 3.105 6.38 3.105 9.641 0 4.17-3.334 7.552-7.447 7.552-3.135 0-5.967-4.91-1.647-11.187z"/><path d="M9.47 8.522C7.788 6.078 5.273 3.441 4.247 2.398a.475.475 0 0 0-.766.118C2.646 4.152.377 8.896.377 12.157c0 4.17 3.334 7.552 7.446 7.552 3.135 0 5.968-4.91 1.647-11.187z"/></g></g></svg>