<?xml version="1.0" encoding="UTF-8"?>
<svg width="32px" height="32px" viewBox="0 0 32 32" version="1.1" xmlns="http://www.w3.org/2000/svg" xmlns:xlink="http://www.w3.org/1999/xlink">
    <!-- Generator: Sketch 49.1 (51147) - http://www.bohemiancoding.com/sketch -->
    <title>icon_jewelry</title>
    <desc>Created with Sketch.</desc>
    <defs>
        <linearGradient x1="50%" y1="0%" x2="50%" y2="100%" id="linearGradient-1">
            <stop stop-color="#91E1F9" offset="0%"></stop>
            <stop stop-color="#55BDF0" offset="100%"></stop>
        </linearGradient>
    </defs>
    <g id="Infographic" stroke="none" stroke-width="1" fill="none" fill-rule="evenodd">
        <g id="Mothers_Day_1440" transform="translate(-179.000000, -12133.000000)" fill="url(#linearGradient-1)">
            <g id="Best-Credit-Cards" transform="translate(155.000000, 11909.000000)">
                <g id="Jewelry" transform="translate(0.000000, 200.000000)">
                    <g id="icon_jewelry" transform="translate(24.000000, 24.000000)">
                        <path d="M16,29.7647474 C23.60206,29.7647474 29.7647474,23.60206 29.7647474,16 C29.7647474,8.39793995 23.60206,2.23525264 16,2.23525264 C8.39793995,2.23525264 2.23525264,8.39793995 2.23525264,16 C2.23525264,23.60206 8.39793995,29.7647474 16,29.7647474 Z M16,32 C7.163444,32 0,24.836556 0,16 C0,7.163444 7.163444,0 16,0 C24.836556,0 32,7.163444 32,16 C32,24.836556 24.836556,32 16,32 Z" id="Combined-Shape-Copy-3" fill-rule="nonzero"></path>
                        <path d="M12.0462806,13.3057222 L14.0634235,10.6386111 L10.7005663,10.6386111 L12.0462806,13.3057222 Z M19.3824711,13.3057222 L20.7281854,10.6386111 L17.3653282,10.6386111 L19.3824711,13.3057222 Z M10.5700901,14.0376667 L9.36628062,11.6491667 L8.16151872,14.0376667 L10.5700901,14.0376667 Z M17.8719949,14.0376667 L15.714852,11.1826111 L13.5558044,14.0376667 L17.8719949,14.0376667 Z M23.267233,14.0376667 L22.0634235,11.6491667 L20.8586616,14.0376667 L23.267233,14.0376667 Z M15.714852,21.6272222 L18.2738997,15.6743889 L13.154852,15.6743889 L15.714852,21.6272222 Z M17.4615187,21.7377222 L22.7881854,15.6743889 L20.0691378,15.6743889 L17.4615187,21.7377222 Z M13.967233,21.7377222 L11.359614,15.6743889 L8.63961395,15.6743889 L13.967233,21.7377222 Z M15.714852,25.7903333 C15.4767568,25.7903333 15.2491378,25.6883333 15.0919949,25.5098333 L6.20342348,15.3938889 C5.98151872,15.1285 5.93961395,14.8017222 6.08532824,14.4938333 L8.627233,9.45238889 C8.80056633,9.15016667 9.047233,9 9.36628062,9 L22.0634235,9 C22.3815187,9 22.6281854,9.15016667 22.7967568,9.44483333 L25.3405663,14.4900556 C25.4881854,14.8017222 25.4462806,15.1285 25.2281854,15.3901111 L16.3367568,25.5098333 C16.179614,25.6883333 15.9529473,25.7903333 15.714852,25.7903333 Z" id="Fill-1"></path>
                    </g>
                </g>
            </g>
        </g>
    </g>
</svg>