<?xml version="1.0" encoding="UTF-8"?>
<svg width="32px" height="32px" viewBox="0 0 32 32" version="1.1" xmlns="http://www.w3.org/2000/svg" xmlns:xlink="http://www.w3.org/1999/xlink">
    <!-- Generator: Sketch 49.1 (51147) - http://www.bohemiancoding.com/sketch -->
    <title>icon_flowers</title>
    <desc>Created with Sketch.</desc>
    <defs>
        <linearGradient x1="50%" y1="0%" x2="50%" y2="100%" id="linearGradient-1">
            <stop stop-color="#FFB0BE" offset="0%"></stop>
            <stop stop-color="#FF788A" offset="100%"></stop>
        </linearGradient>
    </defs>
    <g id="Infographic" stroke="none" stroke-width="1" fill="none" fill-rule="evenodd">
        <g id="Mothers_Day_1440" transform="translate(-179.000000, -14061.000000)">
            <g id="Best-Credit-Cards" transform="translate(155.000000, 11909.000000)">
                <g id="Flowers" transform="translate(0.000000, 2128.000000)">
                    <g id="icon_flowers" transform="translate(24.000000, 24.000000)">
                        <g id="Group-4"></g>
                        <path d="M16,29.7647474 C23.60206,29.7647474 29.7647474,23.60206 29.7647474,16 C29.7647474,8.39793995 23.60206,2.23525264 16,2.23525264 C8.39793995,2.23525264 2.23525264,8.39793995 2.23525264,16 C2.23525264,23.60206 8.39793995,29.7647474 16,29.7647474 Z M16,32 C7.163444,32 0,24.836556 0,16 C0,7.163444 7.163444,0 16,0 C24.836556,0 32,7.163444 32,16 C32,24.836556 24.836556,32 16,32 Z" id="Combined-Shape-Copy-3" fill="url(#linearGradient-1)" fill-rule="nonzero"></path>
                        <g id="tulip" transform="translate(8.000000, 6.000000)" fill="#FFEEF1" fill-rule="nonzero" stroke="url(#linearGradient-1)" stroke-width="1.9047619">
                            <path d="M10.7079685,3.62014695 C9.56487228,1.94691179 8.67170218,0.780554522 8.19803651,0.182724041 C8.00504025,-0.0608885169 7.6415428,-0.0608885169 7.44854654,0.182724041 C6.97493855,0.780554522 6.08171077,1.94697028 4.93861455,3.62014695 L6.38095304,7.0328869 L9.74639028,7.0328869 L10.7079685,3.62014695 Z" id="Shape"></path>
                            <path d="M6.18241952,8.52240369 C7.86505162,6.07791398 10.3800594,3.44069837 11.4062389,2.39763889 C11.6362655,2.16385272 12.0216236,2.22269407 12.1713601,2.5159065 C13.0070235,4.15223421 15.2762005,8.89574797 15.2762005,12.1574072 C15.2762005,16.3278904 11.9421986,19.7088116 7.82946325,19.7088116 C4.69434103,19.7088701 1.86163347,14.799653 6.18241952,8.52240369 Z" id="Shape"></path>
                            <path d="M9.47033525,8.52240369 C7.78770315,6.07791398 5.27269535,3.44069837 4.24651587,2.39763889 C4.01648924,2.16385272 3.63113119,2.22269407 3.4813947,2.5159065 C2.64573126,4.15223421 0.376554324,8.89574797 0.376554324,12.1574072 C0.376554324,16.3278904 3.71055613,19.7088116 7.82329152,19.7088116 C10.9584137,19.7088701 13.7911213,14.799653 9.47033525,8.52240369 Z" id="Shape"></path>
                        </g>
                    </g>
                </g>
            </g>
        </g>
    </g>
</svg>